<svg xmlns="http://www.w3.org/2000/svg" width="512" height="512" viewBox="0 0 512 512" version="1.1"><path d="M 345 93.912 L 345 171.959 349.250 175.852 C 351.587 177.994, 366.775 191.118, 383 205.017 C 399.225 218.916, 413.017 231.022, 413.649 231.919 C 414.815 233.574, 415.311 236.601, 415.111 240.849 C 415.050 242.141, 413.602 244.503, 411.894 246.099 L 408.788 249 389.394 249 L 370 249 369.985 305.750 C 369.969 367.306, 369.801 369.538, 364.391 380.215 C 361.485 385.949, 352.024 396.418, 347.750 398.629 L 345 400.051 345 447.657 L 345 495.262 348.646 494.670 C 350.652 494.345, 359.539 490.515, 368.396 486.160 C 410.082 465.664, 443.885 436.134, 469.050 398.233 C 489.193 367.895, 502.352 334.938, 508.672 299 C 512.114 279.428, 512.984 247.018, 510.616 226.631 C 503.142 162.295, 470.731 101.806, 421.500 60.313 C 400.560 42.664, 365.964 22.275, 347.250 16.553 L 345 15.865 345 93.912 M 345 287.057 L 345 387.259 348.959 383.417 C 351.136 381.303, 354.174 376.858, 355.709 373.537 L 358.500 367.500 359 304.903 C 359.408 253.871, 359.754 242, 360.872 240.653 C 362.070 239.210, 364.963 239, 383.622 239 C 395.380 239, 404.975 238.662, 404.945 238.250 C 404.898 237.612, 356.562 196.007, 347.934 189.178 L 345 186.855 345 287.057" stroke="none" fill="#95449c" fill-rule="evenodd"/><path d="M 231.500 0.709 C 221.871 1.606, 201.620 5.283, 191.500 7.971 C 173.585 12.731, 160.472 17.642, 143.500 25.950 C 91.499 51.404, 51.192 91.716, 25.963 143.500 C 13.992 168.072, 6.609 191.408, 2.328 218.203 C -0.259 234.396, -0.267 277.845, 2.313 293.500 C 6.888 321.256, 14.143 344.250, 25.975 368.500 C 51.261 420.322, 91.502 460.555, 143.500 486.002 C 167.687 497.839, 190.691 505.103, 218.500 509.687 C 235.653 512.514, 278.811 512.240, 296.500 509.192 C 310.793 506.728, 328.804 502.186, 337.744 498.790 C 340.910 497.587, 344.104 496.501, 344.842 496.377 C 346.618 496.077, 347.654 495, 346.167 495 C 345.294 495, 345 483.117, 345 447.893 C 345 403.406, 344.903 400.828, 343.250 401.546 C 331.092 406.829, 336.883 406.500, 256 406.499 L 181.500 406.497 175.581 404.244 C 159.012 397.938, 147.341 385.028, 143.508 368.769 C 142.296 363.628, 142.027 352.287, 142.015 305.750 L 142 249 122.904 249 C 105.277 249, 103.588 248.843, 100.939 246.957 C 96.173 243.563, 95.140 235.961, 98.823 231.366 C 99.745 230.214, 132.037 202.277, 170.582 169.283 C 245.714 104.972, 245.006 105.500, 256 105.500 C 267.278 105.500, 268.018 106.054, 343.250 170.804 C 344.915 172.236, 345 168.480, 345 93.831 L 345 15.351 333.250 11.650 C 306.273 3.151, 284.241 -0.083, 255.030 0.168 C 244.288 0.261, 233.700 0.504, 231.500 0.709 M 248.816 117.776 C 246.789 118.724, 214.079 146.096, 176.127 178.603 L 107.122 237.706 116.811 238.348 C 122.140 238.701, 131.732 238.992, 138.128 238.995 C 147.717 238.999, 149.996 239.290, 151.128 240.653 C 152.246 242, 152.592 253.871, 153 304.903 L 153.500 367.500 156.374 373.722 C 159.896 381.346, 167.699 389.033, 175.747 392.804 L 181.500 395.500 256 395.500 L 330.500 395.500 335 393.218 C 337.475 391.963, 340.738 390.251, 342.250 389.413 L 345 387.891 345 287.402 L 345 186.914 340.250 182.571 C 323.275 167.050, 266.796 119.481, 263.500 117.928 C 258.528 115.586, 253.606 115.535, 248.816 117.776 M 218.624 235.939 C 208.552 239.995, 202.118 246.247, 197.184 256.774 C 194.777 261.909, 194.500 263.646, 194.500 273.603 C 194.500 284.357, 194.610 284.916, 198 291.368 C 201.477 297.987, 230.484 332.687, 238.878 340.271 C 242.869 343.877, 250.817 347, 256 347 C 261.183 347, 269.131 343.877, 273.122 340.271 C 281.791 332.439, 310.521 298.001, 314 291.270 C 317.378 284.737, 317.500 284.115, 317.500 273.500 C 317.500 263.232, 317.292 262.067, 314.374 256 C 310.160 247.236, 305.396 242.034, 297.826 237.930 C 291.821 234.674, 290.993 234.500, 281.500 234.500 C 270.867 234.500, 267.255 235.663, 259.250 241.665 L 256 244.102 252.750 241.665 C 245.658 236.348, 240.888 234.657, 232 234.309 C 225.311 234.047, 222.461 234.394, 218.624 235.939 M 224.803 245.401 C 214.559 248.155, 207.274 255.948, 204.860 266.737 C 203.426 273.144, 204.562 280.403, 208.113 287.512 C 210.502 292.296, 242.743 330.043, 247.323 333.419 C 249.425 334.968, 251.642 335.500, 256 335.500 C 260.358 335.500, 262.575 334.968, 264.677 333.419 C 270.017 329.483, 301.998 291.650, 304.761 286 C 308.461 278.436, 308.607 267.749, 305.108 260.642 C 296.359 242.868, 275.534 239.370, 262.054 253.411 C 257.445 258.211, 254.509 258.129, 249.560 253.062 C 242.946 246.288, 232.978 243.204, 224.803 245.401" stroke="none" fill="#a83e68" fill-rule="evenodd"/></svg>